<svg width="20" height="18" viewBox="0 0 20 18" fill="none" xmlns="http://www.w3.org/2000/svg">
<path d="M12.1852 1.09915C11.8606 0.789998 11.3459 0.802185 11.0367 1.12719C10.7272 1.45219 10.7402 1.9665 11.0648 2.27606L17.2975 8.1874H1.0625C0.614 8.1874 0.25 8.5514 0.25 8.9999C0.25 9.4484 0.614 9.8124 1.0625 9.8124H17.2715L11.0648 15.7242C10.7398 16.0337 10.7272 16.548 11.0367 16.873C11.1964 17.0404 11.4105 17.1249 11.625 17.1249C11.8265 17.1249 12.028 17.0506 12.1852 16.9007L19.2739 10.1488C19.581 9.84206 19.75 9.43419 19.75 8.9999C19.75 8.56562 19.581 8.15775 19.2597 7.83722L12.1852 1.09915Z" fill="#0072CE"/>
</svg>
